<mxfile host="app.diagrams.net" agent="Mozilla/5.0 (Windows NT 10.0; Win64; x64) AppleWebKit/537.36 (KHTML, like Gecko) Chrome/132.0.0.0 Safari/537.36" version="26.0.15">
  <diagram name="Page-1" id="XNo7D4F-3YFf2rSW4mvJ">
    <mxGraphModel dx="1674" dy="940" grid="1" gridSize="10" guides="1" tooltips="1" connect="1" arrows="1" fold="1" page="1" pageScale="1" pageWidth="827" pageHeight="1169" math="0" shadow="0">
      <root>
        <mxCell id="0" />
        <mxCell id="1" parent="0" />
        <mxCell id="qZQEL0t76y7wRIoySrma-2" value="&lt;font style=&quot;font-size: 36px;&quot;&gt;Use Case Situation 1: User Interacts with System&lt;/font&gt;" style="text;html=1;align=center;verticalAlign=middle;resizable=0;points=[];autosize=1;strokeColor=none;fillColor=none;" parent="1" vertex="1">
          <mxGeometry x="15" y="40" width="810" height="60" as="geometry" />
        </mxCell>
        <mxCell id="qZQEL0t76y7wRIoySrma-4" value="" style="whiteSpace=wrap;html=1;aspect=fixed;" parent="1" vertex="1">
          <mxGeometry x="331.888246628131" y="215" width="418.111753371869" height="418.111753371869" as="geometry" />
        </mxCell>
        <mxCell id="qZQEL0t76y7wRIoySrma-3" value="User" style="shape=umlActor;verticalLabelPosition=bottom;verticalAlign=top;html=1;outlineConnect=0;" parent="1" vertex="1">
          <mxGeometry x="40" y="376.1567741935484" width="40.46242774566474" height="95.80645161290322" as="geometry" />
        </mxCell>
        <mxCell id="qZQEL0t76y7wRIoySrma-8" value="" style="ellipse;whiteSpace=wrap;html=1;" parent="1" vertex="1">
          <mxGeometry x="359.00194605009636" y="229.99935483870968" width="109.2485549132948" height="79.83870967741935" as="geometry" />
        </mxCell>
        <mxCell id="qZQEL0t76y7wRIoySrma-5" value="Retrieve Statistics" style="text;html=1;align=center;verticalAlign=middle;whiteSpace=wrap;rounded=0;" parent="1" vertex="1">
          <mxGeometry x="373.8381695568401" y="245.96709677419352" width="80.92485549132948" height="47.90322580645161" as="geometry" />
        </mxCell>
        <mxCell id="qZQEL0t76y7wRIoySrma-9" value="" style="ellipse;whiteSpace=wrap;html=1;" parent="1" vertex="1">
          <mxGeometry x="359.00194605009636" y="530.0041935483871" width="109.2485549132948" height="79.83870967741935" as="geometry" />
        </mxCell>
        <mxCell id="qZQEL0t76y7wRIoySrma-10" value="" style="ellipse;whiteSpace=wrap;html=1;" parent="1" vertex="1">
          <mxGeometry x="414.00184971098264" y="384.1406451612903" width="109.2485549132948" height="79.83870967741935" as="geometry" />
        </mxCell>
        <mxCell id="qZQEL0t76y7wRIoySrma-6" value="Observe Real-time Data" style="text;html=1;align=center;verticalAlign=middle;whiteSpace=wrap;rounded=0;" parent="1" vertex="1">
          <mxGeometry x="428.1636994219653" y="400.10838709677415" width="80.92485549132948" height="47.90322580645161" as="geometry" />
        </mxCell>
        <mxCell id="qZQEL0t76y7wRIoySrma-7" value="Receive Notifications" style="text;html=1;align=center;verticalAlign=middle;whiteSpace=wrap;rounded=0;" parent="1" vertex="1">
          <mxGeometry x="373.16379576107903" y="545.971935483871" width="80.92485549132948" height="47.90322580645161" as="geometry" />
        </mxCell>
        <mxCell id="qZQEL0t76y7wRIoySrma-20" value="" style="endArrow=classic;html=1;rounded=0;entryX=0;entryY=0.5;entryDx=0;entryDy=0;" parent="1" target="qZQEL0t76y7wRIoySrma-8" edge="1">
          <mxGeometry width="50" height="50" relative="1" as="geometry">
            <mxPoint x="90" y="390" as="sourcePoint" />
            <mxPoint x="252.3121387283237" y="366.69354838709677" as="targetPoint" />
          </mxGeometry>
        </mxCell>
        <mxCell id="qZQEL0t76y7wRIoySrma-21" value="" style="endArrow=classic;html=1;rounded=0;entryX=0;entryY=0.5;entryDx=0;entryDy=0;" parent="1" target="qZQEL0t76y7wRIoySrma-10" edge="1">
          <mxGeometry width="50" height="50" relative="1" as="geometry">
            <mxPoint x="100" y="430" as="sourcePoint" />
            <mxPoint x="373.6994219653179" y="310.80645161290323" as="targetPoint" />
          </mxGeometry>
        </mxCell>
        <mxCell id="qZQEL0t76y7wRIoySrma-22" value="" style="endArrow=classic;html=1;rounded=0;entryX=0;entryY=0.5;entryDx=0;entryDy=0;" parent="1" target="qZQEL0t76y7wRIoySrma-9" edge="1">
          <mxGeometry width="50" height="50" relative="1" as="geometry">
            <mxPoint x="100" y="470" as="sourcePoint" />
            <mxPoint x="387.1868978805395" y="326.7741935483871" as="targetPoint" />
          </mxGeometry>
        </mxCell>
      </root>
    </mxGraphModel>
  </diagram>
</mxfile>
